<svg xmlns="http://www.w3.org/2000/svg" xmlns:xlink="http://www.w3.org/1999/xlink" viewBox="0 0 566.42 72.53"><defs><linearGradient id="a" y1="40.29" x2="566.42" y2="40.29" gradientUnits="userSpaceOnUse"><stop offset="0" stop-color="#75d2d2"/><stop offset="1" stop-color="#fc77b5"/></linearGradient></defs><path d="M0,24.62,19.37,5.18V75.91H0Z" transform="translate(0 -4.03)" fill="url(#a)"/><path d="M26.79,53.55,75.54,5.18V35.45L106.21,5.18V75.8H87.8V45.13l-31,31v-30l-30,29.7Z" transform="translate(0 -4.03)" fill="url(#a)"/><path d="M113.63,24.62,133,5.18V75.91H113.63ZM151.72,5.18A27.19,27.19,0,0,1,170.44,12q7.65,6.78,7.64,20.24a24.4,24.4,0,0,1-7.69,18.08,25,25,0,0,1-18.13,7.54H138V40.61l8.71-.1q4.31,0,6.57-2.28a7.86,7.86,0,0,0,2.26-5.75,9.73,9.73,0,0,0-2.16-6.61q-1.94-2.51-6.77-2.5H133V5.18Z" transform="translate(0 -4.03)" fill="url(#a)"/><path d="M182.49,24.62,201.86,5.18V75.91H182.49Zm12.92,7.49h31.74V49.44H201.86Zm1.07,26h30.67V75.91H201.86ZM197,23.48l4.84-18.3h43.37l-18.29,18.3Z" transform="translate(0 -4.03)" fill="url(#a)"/><path d="M234.9,24.59,254.27,5.18V75.8H234.9ZM273,5.18q10.75,0,17.11,5.55t6.35,16.64a21.4,21.4,0,0,1-6.3,15.77q-6.3,6.3-16.62,6.3c-3,0-4.52-.29-4.52-.86l.43-.43,1.18-.54-11.51-8.72,8.71-.11q4.31,0,6.57-2.28a7.85,7.85,0,0,0,2.26-5.75,7.31,7.31,0,0,0-2-5.43q-2-2-6.84-1.95H254.27V5.18Zm22.92,71.13L258.46,38.78h22.92l14.53,14.89Z" transform="translate(0 -4.03)" fill="url(#a)"/><path d="M301.72,52.92,349.28,5.21h16.78v70.7H346.7V66.76H316.16l17.33-17.22H346.7V30.82l-45,45.09Z" transform="translate(0 -4.03)" fill="url(#a)"/><path d="M375.34,23.48l18.19-18.3h43.23l-18.22,18.3Zm17.52-.08L412.23,5.18V75.91H392.86Z" transform="translate(0 -4.03)" fill="url(#a)"/><path d="M500.14,40.29q0,17.12-10.76,26.69a39,39,0,0,1-51.12,0q-10.75-9.53-10.76-26.74,0-17,10.76-26.63A37.12,37.12,0,0,1,463.87,4q14.85,0,22.87,7.15T497.45,24.9A40.5,40.5,0,0,1,500.14,40.29Zm-54.34,0q0,8.3,5.27,13a19,19,0,0,0,25,.11q5.28-4.64,5.28-13.13T476,27.22a19.15,19.15,0,0,0-25-.11Q445.79,31.69,445.8,40.29Z" transform="translate(0 -4.03)" fill="url(#a)"/><path d="M504.87,24.59,524.24,5.18V75.8H504.87ZM543,5.18q10.77,0,17.11,5.55t6.35,16.64a21.43,21.43,0,0,1-6.29,15.77q-6.3,6.3-16.63,6.3c-3,0-4.52-.29-4.52-.86l.43-.43,1.19-.54-11.52-8.72,8.72-.11q4.31,0,6.56-2.28a7.81,7.81,0,0,0,2.26-5.75,7.27,7.27,0,0,0-2-5.43c-1.33-1.3-3.6-1.95-6.83-1.95H524.24V5.18Zm22.92,71.13L528.44,38.78h22.92l14.52,14.89Z" transform="translate(0 -4.03)" fill="url(#a)"/></svg>